<svg width="173" height="22" viewBox="0 0 173 22" fill="none" xmlns="http://www.w3.org/2000/svg">
<path d="M0.0346878 17L0.0346878 16.088C0.338688 15.912 0.658688 15.76 0.994688 15.632C1.34669 15.504 1.68269 15.424 2.00269 15.392L2.00269 1.808C1.68269 1.744 1.34669 1.656 0.994688 1.544C0.642688 1.416 0.322688 1.272 0.0346876 1.112L0.0346876 0.199999L3.89869 0.199999C4.50669 0.199999 5.08269 0.175999 5.62669 0.128C6.17069 0.0799996 6.79469 0.0559994 7.49869 0.0559994C8.26669 0.0559994 9.01069 0.111999 9.73069 0.223999C10.4507 0.335999 11.0907 0.535999 11.6507 0.824C12.2107 1.112 12.6587 1.52 12.9947 2.048C13.3307 2.56 13.4987 3.224 13.4987 4.04C13.4987 4.552 13.4027 5.032 13.2107 5.48C13.0347 5.912 12.7787 6.296 12.4427 6.632C12.1227 6.968 11.7387 7.248 11.2907 7.472C10.8587 7.696 10.3867 7.856 9.87469 7.952L9.87469 8.048C10.3867 8.112 10.8987 8.232 11.4107 8.408C11.9387 8.584 12.4107 8.84 12.8267 9.176C13.2427 9.512 13.5787 9.936 13.8347 10.448C14.1067 10.944 14.2427 11.536 14.2427 12.224C14.2427 13.088 14.0507 13.832 13.6667 14.456C13.2827 15.08 12.7627 15.592 12.1067 15.992C11.4667 16.392 10.7307 16.688 9.89869 16.88C9.06669 17.056 8.20269 17.144 7.30669 17.144C6.97069 17.144 6.60269 17.136 6.20269 17.12C5.80269 17.104 5.40269 17.088 5.00269 17.072C4.60269 17.056 4.21069 17.04 3.82669 17.024C3.45869 17.008 3.14669 17 2.89069 17L0.0346878 17ZM7.28269 15.584C8.29069 15.584 9.08269 15.288 9.65869 14.696C10.2347 14.088 10.5227 13.288 10.5227 12.296C10.5227 11.688 10.4267 11.192 10.2347 10.808C10.0427 10.408 9.77869 10.096 9.44269 9.872C9.10669 9.632 8.70669 9.472 8.24269 9.392C7.77869 9.296 7.27469 9.248 6.73069 9.248L5.45869 9.248L5.45869 15.416C5.68269 15.464 5.91469 15.504 6.15469 15.536C6.41069 15.568 6.78669 15.584 7.28269 15.584ZM6.22669 7.688C6.49869 7.688 6.77069 7.68 7.04269 7.664C7.31469 7.632 7.57069 7.6 7.81069 7.568C8.43469 7.312 8.93869 6.92 9.32269 6.392C9.70669 5.848 9.89869 5.232 9.89869 4.544C9.89869 3.536 9.63469 2.8 9.10669 2.336C8.57869 1.856 7.89869 1.616 7.06669 1.616C6.71469 1.616 6.41069 1.624 6.15469 1.64C5.89869 1.656 5.66669 1.68 5.45869 1.712L5.45869 7.688L6.22669 7.688ZM22.1006 7.76C21.9086 7.856 21.6846 8.016 21.4286 8.24C21.1726 8.464 20.9406 8.832 20.7326 9.344L20.7326 15.488C21.0526 15.52 21.3726 15.584 21.6926 15.68C22.0126 15.76 22.3326 15.888 22.6526 16.064L22.6526 17L15.6926 17L15.6926 16.064C15.9806 15.904 16.2526 15.784 16.5086 15.704C16.7646 15.624 17.0206 15.552 17.2766 15.488L17.2766 6.704L15.6926 6.512L15.6926 5.576C15.9486 5.464 16.2606 5.36 16.6286 5.264C17.0126 5.168 17.4046 5.088 17.8046 5.024C18.2046 4.944 18.5886 4.88 18.9566 4.832C19.3406 4.784 19.6606 4.744 19.9166 4.712L20.7326 4.712L20.7326 7.904L20.8286 7.904C20.9566 7.552 21.1406 7.184 21.3806 6.8C21.6366 6.416 21.9326 6.064 22.2686 5.744C22.6046 5.424 22.9726 5.168 23.3726 4.976C23.7726 4.784 24.1886 4.696 24.6206 4.712C24.7966 4.936 24.9486 5.256 25.0766 5.672C25.2046 6.072 25.3086 6.456 25.3886 6.824L25.3886 7.76L22.1006 7.76ZM37.1406 14.984C37.0126 15.256 36.8046 15.536 36.5166 15.824C36.2446 16.096 35.9006 16.344 35.4846 16.568C35.0846 16.776 34.6126 16.944 34.0686 17.072C33.5406 17.216 32.9646 17.288 32.3406 17.288C31.3486 17.288 30.4686 17.144 29.7006 16.856C28.9326 16.552 28.2926 16.128 27.7806 15.584C27.2686 15.024 26.8766 14.36 26.6046 13.592C26.3486 12.824 26.2206 11.96 26.2206 11C26.2206 8.952 26.7566 7.392 27.8286 6.32C28.9006 5.248 30.3886 4.712 32.2926 4.712C33.1086 4.712 33.8686 4.824 34.5726 5.048C35.2926 5.272 35.8846 5.64 36.3486 6.152C36.8286 6.664 37.1566 7.336 37.3326 8.168C37.5246 9 37.5166 10.016 37.3086 11.216L29.9406 11.216C29.9566 12.48 30.2766 13.488 30.9006 14.24C31.5406 14.992 32.4766 15.368 33.7086 15.368C34.2366 15.368 34.7806 15.288 35.3406 15.128C35.9166 14.968 36.3646 14.76 36.6846 14.504L37.1406 14.984ZM32.1966 6.08C31.8766 6.08 31.5886 6.136 31.3326 6.248C31.0926 6.36 30.8766 6.568 30.6846 6.872C30.5086 7.16 30.3646 7.56 30.2526 8.072C30.1406 8.568 30.0606 9.2 30.0126 9.968L33.8766 9.968C33.9886 8.72 33.9166 7.76 33.6606 7.088C33.4046 6.416 32.9166 6.08 32.1966 6.08ZM43.1672 17.288L39.3992 6.512C39.1752 6.432 38.9512 6.352 38.7272 6.272C38.5192 6.176 38.3192 6.064 38.1272 5.936L38.1272 5L44.1992 5L44.1992 5.912C43.9752 6.04 43.7512 6.16 43.5272 6.272C43.3032 6.368 43.0712 6.448 42.8312 6.512L44.4872 12.656L44.7992 14.504L44.8472 14.504L45.2792 12.584L47.8232 5.144L48.9992 5L51.7352 12.608L52.2392 14.504L52.2872 14.504L52.6712 12.632L54.1112 6.512C53.9352 6.48 53.7272 6.416 53.4872 6.32C53.2632 6.224 53.0312 6.096 52.7912 5.936L52.7912 5L57.4232 5L57.4232 5.936C57.0872 6.16 56.6312 6.352 56.0552 6.512L52.7192 17L50.4632 17.288L48.3992 11.36L47.9432 9.368L47.8712 9.368L47.3192 11.36L45.3992 17L43.1672 17.288ZM77.9123 17L71.9123 17L71.9123 16.064C72.0723 15.968 72.2483 15.872 72.4403 15.776C72.6483 15.664 72.8723 15.568 73.1123 15.488L73.1123 10.712C73.1123 9.976 73.0883 9.352 73.0403 8.84C73.0083 8.328 72.9283 7.912 72.8003 7.592C72.6723 7.256 72.4963 7.016 72.2723 6.872C72.0483 6.712 71.7603 6.632 71.4083 6.632C70.8963 6.632 70.4483 6.832 70.0643 7.232C69.6963 7.616 69.4243 8.128 69.2483 8.768L69.2483 15.488C69.6803 15.616 70.0803 15.808 70.4483 16.064L70.4483 17L64.2083 17L64.2083 16.064C64.4323 15.952 64.6803 15.848 64.9523 15.752C65.2243 15.656 65.5043 15.568 65.7923 15.488L65.7923 6.704L64.2083 6.512L64.2083 5.576C64.4643 5.464 64.7763 5.36 65.1443 5.264C65.5283 5.168 65.9203 5.088 66.3203 5.024C66.7203 4.944 67.1043 4.88 67.4723 4.832C67.8563 4.784 68.1763 4.744 68.4323 4.712L69.2483 4.712L69.2483 7.424L69.2723 7.424C69.5283 6.672 69.9763 6.032 70.6163 5.504C71.2723 4.976 72.0563 4.712 72.9683 4.712C73.3523 4.712 73.7283 4.752 74.0963 4.832C74.4643 4.912 74.8003 5.064 75.1043 5.288C75.4243 5.496 75.6963 5.792 75.9203 6.176C76.1443 6.56 76.3043 7.056 76.4003 7.664C76.6883 6.784 77.1683 6.072 77.8403 5.528C78.5123 4.984 79.3283 4.712 80.2883 4.712C80.8803 4.712 81.4003 4.792 81.8483 4.952C82.3123 5.096 82.6963 5.36 83.0003 5.744C83.3203 6.128 83.5603 6.648 83.7203 7.304C83.8803 7.96 83.9603 8.792 83.9603 9.8L83.9603 15.488C84.5043 15.584 85.0323 15.776 85.5443 16.064L85.5443 17L79.3043 17L79.3043 16.064C79.6723 15.824 80.0723 15.632 80.5043 15.488L80.5043 10.28C80.5043 9.032 80.3843 8.112 80.1443 7.52C79.9203 6.928 79.4243 6.632 78.6563 6.632C78.0803 6.632 77.6243 6.848 77.2883 7.28C76.9683 7.712 76.7283 8.288 76.5683 9.008L76.5683 15.488C76.8403 15.568 77.0803 15.656 77.2883 15.752C77.5123 15.848 77.7203 15.952 77.9123 16.064L77.9123 17ZM97.4921 14.984C97.3641 15.256 97.1561 15.536 96.8681 15.824C96.5961 16.096 96.2521 16.344 95.8361 16.568C95.4361 16.776 94.9641 16.944 94.4201 17.072C93.8921 17.216 93.3161 17.288 92.6921 17.288C91.7001 17.288 90.8201 17.144 90.0521 16.856C89.2841 16.552 88.6441 16.128 88.1321 15.584C87.6201 15.024 87.2281 14.36 86.9561 13.592C86.7001 12.824 86.5721 11.96 86.5721 11C86.5721 8.952 87.1081 7.392 88.1801 6.32C89.2521 5.248 90.7401 4.712 92.6441 4.712C93.4601 4.712 94.2201 4.824 94.9241 5.048C95.6441 5.272 96.2361 5.64 96.7001 6.152C97.1801 6.664 97.5081 7.336 97.6841 8.168C97.8761 9 97.8681 10.016 97.6601 11.216L90.2921 11.216C90.3081 12.48 90.6281 13.488 91.2521 14.24C91.8921 14.992 92.8281 15.368 94.0601 15.368C94.5881 15.368 95.1321 15.288 95.6921 15.128C96.2681 14.968 96.7161 14.76 97.0361 14.504L97.4921 14.984ZM92.5481 6.08C92.2281 6.08 91.9401 6.136 91.6841 6.248C91.4441 6.36 91.2281 6.568 91.0361 6.872C90.8601 7.16 90.7161 7.56 90.6041 8.072C90.4921 8.568 90.4121 9.2 90.3641 9.968L94.2281 9.968C94.3401 8.72 94.2681 7.76 94.0121 7.088C93.7561 6.416 93.2681 6.08 92.5481 6.08ZM116.468 13.52C116.468 13.872 116.468 14.176 116.468 14.432C116.484 14.688 116.508 14.96 116.54 15.248L118.196 15.488L118.196 16.328C118.004 16.424 117.74 16.52 117.404 16.616C117.084 16.712 116.74 16.808 116.372 16.904C116.02 16.984 115.668 17.048 115.316 17.096C114.964 17.16 114.652 17.208 114.38 17.24L113.564 17.24C113.404 16.872 113.308 16.504 113.276 16.136C113.244 15.768 113.22 15.32 113.204 14.792L113.084 14.792C113.004 15.112 112.868 15.424 112.676 15.728C112.484 16.016 112.236 16.28 111.932 16.52C111.644 16.744 111.3 16.928 110.9 17.072C110.5 17.216 110.052 17.288 109.556 17.288C109.028 17.288 108.54 17.208 108.092 17.048C107.644 16.888 107.252 16.664 106.916 16.376C106.58 16.088 106.316 15.744 106.124 15.344C105.932 14.928 105.836 14.464 105.836 13.952C105.836 13.232 105.972 12.64 106.244 12.176C106.516 11.712 106.94 11.336 107.516 11.048C108.108 10.744 108.86 10.52 109.772 10.376C110.7 10.232 111.82 10.128 113.132 10.064C113.26 8.688 113.204 7.68 112.964 7.04C112.724 6.4 112.204 6.08 111.404 6.08C110.908 6.08 110.452 6.16 110.036 6.32L108.908 9.2L107.852 9.2C107.724 9.008 107.596 8.792 107.468 8.552C107.356 8.296 107.244 8.032 107.132 7.76C107.036 7.472 106.948 7.184 106.868 6.896C106.804 6.608 106.756 6.328 106.724 6.056C107.332 5.64 108.116 5.312 109.076 5.072C110.036 4.832 111.052 4.712 112.124 4.712C113.036 4.712 113.78 4.816 114.356 5.024C114.932 5.216 115.38 5.488 115.7 5.84C116.036 6.176 116.268 6.576 116.396 7.04C116.524 7.504 116.588 8 116.588 8.528C116.588 9.488 116.564 10.36 116.516 11.144C116.484 11.912 116.468 12.704 116.468 13.52ZM111.068 15.368C111.404 15.368 111.692 15.304 111.932 15.176C112.172 15.048 112.372 14.896 112.532 14.72C112.708 14.544 112.836 14.352 112.916 14.144C113.012 13.936 113.084 13.752 113.132 13.592L113.132 11.192C112.38 11.208 111.764 11.256 111.284 11.336C110.804 11.416 110.428 11.552 110.156 11.744C109.884 11.92 109.692 12.152 109.58 12.44C109.484 12.712 109.436 13.048 109.436 13.448C109.436 14.056 109.58 14.528 109.868 14.864C110.156 15.2 110.556 15.368 111.068 15.368ZM135.96 15.056C135.848 15.376 135.664 15.672 135.408 15.944C135.152 16.2 134.84 16.432 134.472 16.64C134.12 16.848 133.712 17.008 133.248 17.12C132.8 17.232 132.328 17.288 131.832 17.288C130.776 17.288 129.864 17.144 129.096 16.856C128.344 16.552 127.72 16.128 127.224 15.584C126.728 15.024 126.36 14.36 126.12 13.592C125.88 12.808 125.76 11.944 125.76 11C125.76 8.968 126.312 7.416 127.416 6.344C128.536 5.256 130.12 4.712 132.168 4.712C132.952 4.712 133.672 4.8 134.328 4.976C134.984 5.136 135.528 5.328 135.96 5.552C135.928 5.824 135.88 6.128 135.816 6.464C135.768 6.784 135.704 7.112 135.624 7.448C135.56 7.768 135.48 8.088 135.384 8.408C135.288 8.712 135.192 8.968 135.096 9.176L133.92 9.176L132.912 6.32C132.8 6.24 132.68 6.184 132.552 6.152C132.424 6.104 132.232 6.08 131.976 6.08C131.56 6.08 131.2 6.16 130.896 6.32C130.592 6.464 130.328 6.72 130.104 7.088C129.896 7.456 129.736 7.944 129.624 8.552C129.528 9.16 129.48 9.912 129.48 10.808C129.48 11.464 129.552 12.072 129.696 12.632C129.84 13.176 130.056 13.656 130.344 14.072C130.648 14.472 131.024 14.792 131.472 15.032C131.92 15.256 132.448 15.368 133.056 15.368C133.616 15.368 134.104 15.288 134.52 15.128C134.936 14.968 135.288 14.776 135.576 14.552L135.96 15.056ZM138.345 12.248C138.345 11.24 138.369 10.304 138.417 9.44C138.465 8.576 138.489 7.664 138.489 6.704L136.905 6.512L136.905 5.576C137.161 5.48 137.473 5.384 137.841 5.288C138.225 5.192 138.617 5.112 139.017 5.048C139.417 4.968 139.801 4.904 140.169 4.856C140.553 4.792 140.873 4.744 141.129 4.712L141.945 4.712C141.945 5.912 141.921 7.096 141.873 8.264C141.825 9.416 141.801 10.552 141.801 11.672C141.801 12.984 141.929 13.928 142.185 14.504C142.457 15.08 142.953 15.368 143.673 15.368C144.169 15.368 144.625 15.184 145.041 14.816C145.473 14.432 145.825 13.824 146.097 12.992L146.097 6.704L144.537 6.512L144.537 5.576C144.777 5.48 145.073 5.384 145.425 5.288C145.793 5.192 146.169 5.112 146.553 5.048C146.953 4.968 147.345 4.904 147.729 4.856C148.113 4.792 148.449 4.744 148.737 4.712L149.553 4.712L149.553 15.296L151.137 15.488L151.137 16.328C150.913 16.424 150.633 16.52 150.297 16.616C149.961 16.712 149.609 16.808 149.241 16.904C148.873 16.984 148.505 17.048 148.137 17.096C147.785 17.16 147.465 17.208 147.177 17.24L146.361 17.24L146.193 14.384L146.097 14.384C146.017 14.72 145.873 15.064 145.665 15.416C145.457 15.752 145.185 16.064 144.849 16.352C144.529 16.624 144.145 16.848 143.697 17.024C143.249 17.2 142.753 17.288 142.209 17.288C141.601 17.288 141.057 17.208 140.577 17.048C140.113 16.904 139.713 16.64 139.377 16.256C139.041 15.872 138.785 15.36 138.609 14.72C138.433 14.064 138.345 13.24 138.345 12.248ZM158.698 21.8L152.074 21.8L152.074 20.864C152.618 20.608 153.146 20.416 153.658 20.288L153.658 6.704L152.074 6.512L152.074 5.576C152.33 5.464 152.642 5.36 153.01 5.264C153.394 5.168 153.786 5.088 154.186 5.024C154.586 4.944 154.97 4.88 155.338 4.832C155.722 4.784 156.042 4.744 156.298 4.712L157.114 4.712L157.114 7.4L157.138 7.4C157.41 6.632 157.834 5.992 158.41 5.48C159.002 4.968 159.818 4.712 160.858 4.712C161.562 4.712 162.194 4.832 162.754 5.072C163.33 5.296 163.81 5.656 164.194 6.152C164.594 6.632 164.898 7.256 165.106 8.024C165.33 8.776 165.442 9.68 165.442 10.736C165.442 11.744 165.298 12.656 165.01 13.472C164.738 14.288 164.338 14.976 163.81 15.536C163.298 16.096 162.666 16.528 161.914 16.832C161.178 17.136 160.338 17.288 159.394 17.288C158.85 17.288 158.418 17.248 158.098 17.168C157.794 17.104 157.466 16.984 157.114 16.808L157.114 20.288C157.37 20.32 157.626 20.376 157.882 20.456C158.138 20.552 158.41 20.688 158.698 20.864L158.698 21.8ZM159.466 6.632C158.922 6.632 158.434 6.824 158.002 7.208C157.586 7.592 157.29 8.184 157.114 8.984L157.114 15.368C157.37 15.56 157.642 15.704 157.93 15.8C158.218 15.88 158.594 15.92 159.058 15.92C159.97 15.92 160.642 15.48 161.074 14.6C161.506 13.72 161.722 12.432 161.722 10.736C161.722 9.424 161.554 8.416 161.218 7.712C160.898 6.992 160.314 6.632 159.466 6.632ZM170.323 11.768L169.123 7.112L169.123 0.44C169.283 0.344 169.523 0.280001 169.843 0.248001C170.163 0.200001 170.499 0.176001 170.851 0.176001C171.203 0.176001 171.531 0.200001 171.835 0.248001C172.155 0.280001 172.403 0.344 172.579 0.44L172.579 7.112L171.379 11.768L170.323 11.768ZM168.835 15.296C168.835 14.72 169.019 14.256 169.387 13.904C169.771 13.552 170.267 13.376 170.875 13.376C171.483 13.376 171.979 13.552 172.363 13.904C172.747 14.256 172.939 14.72 172.939 15.296C172.939 15.872 172.747 16.336 172.363 16.688C171.979 17.024 171.483 17.192 170.875 17.192C170.267 17.192 169.771 17.024 169.387 16.688C169.019 16.336 168.835 15.872 168.835 15.296Z" fill="white"/>
</svg>
