<svg width="100" height="24" viewBox="0 0 100 24" fill="none" xmlns="http://www.w3.org/2000/svg">
<path d="M0.240688 10.6C0.240688 9.352 0.416688 8.2 0.768688 7.144C1.12069 6.072 1.64069 5.152 2.32869 4.384C3.01669 3.6 3.86469 2.992 4.87269 2.56C5.88069 2.128 7.04069 1.912 8.35269 1.912C9.66469 1.912 10.8247 2.128 11.8327 2.56C12.8407 2.992 13.6807 3.6 14.3527 4.384C15.0407 5.152 15.5607 6.072 15.9127 7.144C16.2647 8.2 16.4407 9.352 16.4407 10.6C16.4407 11.848 16.2647 13.008 15.9127 14.08C15.5607 15.136 15.0407 16.056 14.3527 16.84C13.6807 17.608 12.8407 18.208 11.8327 18.64C10.8247 19.072 9.66469 19.288 8.35269 19.288C7.04069 19.288 5.88069 19.072 4.87269 18.64C3.86469 18.208 3.01669 17.608 2.32869 16.84C1.64069 16.056 1.12069 15.136 0.768688 14.08C0.416688 13.008 0.240688 11.848 0.240688 10.6ZM4.32069 10.6C4.32069 11.624 4.40069 12.576 4.56069 13.456C4.72069 14.32 4.96869 15.072 5.30469 15.712C5.65669 16.336 6.09669 16.832 6.62469 17.2C7.16869 17.552 7.81669 17.728 8.56869 17.728C9.25669 17.728 9.84069 17.552 10.3207 17.2C10.8007 16.832 11.1927 16.336 11.4967 15.712C11.8007 15.072 12.0167 14.32 12.1447 13.456C12.2887 12.576 12.3607 11.624 12.3607 10.6C12.3607 9.576 12.2807 8.632 12.1207 7.768C11.9767 6.888 11.7367 6.136 11.4007 5.512C11.0807 4.872 10.6487 4.376 10.1047 4.024C9.57669 3.656 8.92869 3.472 8.16069 3.472C7.42469 3.472 6.80869 3.656 6.31269 4.024C5.81669 4.376 5.41669 4.872 5.11269 5.512C4.82469 6.136 4.61669 6.888 4.48869 7.768C4.37669 8.632 4.32069 9.576 4.32069 10.6ZM25.1264 7L30.7424 7L30.7424 7.936C30.4384 8.064 30.1504 8.176 29.8784 8.272C29.6224 8.368 29.3344 8.448 29.0144 8.512C28.7744 8.832 28.5104 9.152 28.2224 9.472C27.9504 9.776 27.6704 10.072 27.3824 10.36C27.1104 10.648 26.8464 10.928 26.5904 11.2C26.3344 11.456 26.1024 11.688 25.8944 11.896C26.1344 12.216 26.4144 12.6 26.7344 13.048C27.0544 13.496 27.3984 13.976 27.7664 14.488C28.1344 14.984 28.5184 15.496 28.9184 16.024C29.3344 16.536 29.7504 17.024 30.1664 17.488L31.3904 18.064L31.3904 19L27.3344 19L26.6864 18.424C26.3184 17.928 25.9904 17.464 25.7024 17.032C25.4304 16.6 25.1824 16.184 24.9584 15.784C24.7344 15.384 24.5184 15 24.3104 14.632C24.1024 14.248 23.8944 13.872 23.6864 13.504L22.8944 13.264L22.8944 17.488C23.1664 17.536 23.4144 17.608 23.6384 17.704C23.8624 17.8 24.1024 17.92 24.3584 18.064L24.3584 19L17.8544 19L17.8544 18.064C18.3824 17.808 18.9104 17.616 19.4384 17.488L19.4384 2.944L17.6144 2.752L17.6144 1.816C17.8384 1.72 18.1424 1.624 18.5264 1.528C18.9104 1.432 19.3184 1.352 19.7504 1.288C20.1824 1.208 20.6064 1.144 21.0224 1.096C21.4384 1.032 21.7904 0.983999 22.0784 0.951999L22.8944 0.951999L22.8944 12.208L23.5184 12.208C24.0464 11.648 24.5344 11.032 24.9824 10.36C25.4464 9.688 25.8544 9.072 26.2064 8.512C25.9984 8.448 25.8064 8.368 25.6304 8.272C25.4704 8.176 25.3024 8.064 25.1264 7.936L25.1264 7ZM32.6626 22.144C32.9826 22.048 33.2706 21.904 33.5266 21.712C33.7826 21.52 33.9986 21.304 34.1746 21.064C34.3666 20.824 34.5106 20.568 34.6066 20.296C34.7026 20.024 34.7426 19.76 34.7266 19.504C34.5026 19.216 34.2306 18.984 33.9106 18.808C33.6066 18.632 33.2786 18.488 32.9266 18.376C32.8466 18.04 32.8306 17.704 32.8786 17.368C32.9426 17.032 33.0546 16.72 33.2146 16.432C33.3746 16.144 33.5586 15.904 33.7666 15.712C33.9906 15.504 34.2226 15.376 34.4626 15.328C34.7986 15.344 35.1266 15.424 35.4466 15.568C35.7666 15.696 36.0546 15.888 36.3106 16.144C36.5666 16.384 36.7666 16.696 36.9106 17.08C37.0706 17.464 37.1506 17.912 37.1506 18.424C37.1506 18.92 37.0466 19.424 36.8386 19.936C36.6466 20.448 36.3746 20.92 36.0226 21.352C35.6866 21.8 35.2786 22.184 34.7986 22.504C34.3186 22.84 33.7906 23.072 33.2146 23.2L32.6626 22.144ZM55.2956 17.056C55.1836 17.376 54.9996 17.672 54.7436 17.944C54.4876 18.2 54.1756 18.432 53.8076 18.64C53.4556 18.848 53.0476 19.008 52.5836 19.12C52.1356 19.232 51.6636 19.288 51.1676 19.288C50.1116 19.288 49.1996 19.144 48.4316 18.856C47.6796 18.552 47.0556 18.128 46.5596 17.584C46.0636 17.024 45.6956 16.36 45.4556 15.592C45.2156 14.808 45.0956 13.944 45.0956 13C45.0956 10.968 45.6476 9.416 46.7516 8.344C47.8716 7.256 49.4556 6.712 51.5036 6.712C52.2876 6.712 53.0076 6.8 53.6636 6.976C54.3196 7.136 54.8636 7.328 55.2956 7.552C55.2636 7.824 55.2156 8.128 55.1516 8.464C55.1036 8.784 55.0396 9.112 54.9596 9.448C54.8956 9.768 54.8156 10.088 54.7196 10.408C54.6236 10.712 54.5276 10.968 54.4316 11.176L53.2556 11.176L52.2476 8.32C52.1356 8.24 52.0156 8.184 51.8876 8.152C51.7596 8.104 51.5676 8.08 51.3116 8.08C50.8956 8.08 50.5356 8.16 50.2316 8.32C49.9276 8.464 49.6636 8.72 49.4396 9.088C49.2316 9.456 49.0716 9.944 48.9596 10.552C48.8636 11.16 48.8156 11.912 48.8156 12.808C48.8156 13.464 48.8876 14.072 49.0316 14.632C49.1756 15.176 49.3916 15.656 49.6796 16.072C49.9836 16.472 50.3596 16.792 50.8076 17.032C51.2556 17.256 51.7836 17.368 52.3916 17.368C52.9516 17.368 53.4396 17.288 53.8556 17.128C54.2716 16.968 54.6236 16.776 54.9116 16.552L55.2956 17.056ZM56.7206 13C56.7206 12.024 56.8646 11.152 57.1526 10.384C57.4566 9.6 57.8806 8.936 58.4246 8.392C58.9846 7.848 59.6566 7.432 60.4406 7.144C61.2246 6.856 62.1126 6.712 63.1046 6.712C64.2246 6.712 65.1846 6.872 65.9846 7.192C66.8006 7.496 67.4646 7.928 67.9766 8.488C68.5046 9.032 68.8886 9.696 69.1286 10.48C69.3686 11.248 69.4886 12.088 69.4886 13C69.4886 13.976 69.3446 14.856 69.0566 15.64C68.7686 16.408 68.3446 17.064 67.7846 17.608C67.2406 18.152 66.5686 18.568 65.7686 18.856C64.9846 19.144 64.0966 19.288 63.1046 19.288C62.0166 19.288 61.0726 19.136 60.2726 18.832C59.4726 18.512 58.8086 18.08 58.2806 17.536C57.7526 16.976 57.3606 16.312 57.1046 15.544C56.8486 14.76 56.7206 13.912 56.7206 13ZM60.4406 13C60.4406 13.72 60.4806 14.384 60.5606 14.992C60.6566 15.584 60.8166 16.088 61.0406 16.504C61.2646 16.92 61.5686 17.248 61.9526 17.488C62.3366 17.712 62.8326 17.824 63.4406 17.824C63.7926 17.824 64.1126 17.744 64.4006 17.584C64.6886 17.408 64.9366 17.136 65.1446 16.768C65.3526 16.384 65.5046 15.888 65.6006 15.28C65.7126 14.656 65.7686 13.896 65.7686 13C65.7686 12.264 65.7206 11.6 65.6246 11.008C65.5446 10.416 65.3926 9.912 65.1686 9.496C64.9606 9.08 64.6726 8.76 64.3046 8.536C63.9366 8.296 63.4726 8.176 62.9126 8.176C62.4966 8.176 62.1366 8.264 61.8326 8.44C61.5286 8.6 61.2726 8.872 61.0646 9.256C60.8566 9.624 60.6966 10.12 60.5846 10.744C60.4886 11.352 60.4406 12.104 60.4406 13ZM70.9706 13C70.9706 12.024 71.1146 11.152 71.4026 10.384C71.7066 9.6 72.1306 8.936 72.6746 8.392C73.2346 7.848 73.9066 7.432 74.6906 7.144C75.4746 6.856 76.3626 6.712 77.3546 6.712C78.4746 6.712 79.4346 6.872 80.2346 7.192C81.0506 7.496 81.7146 7.928 82.2266 8.488C82.7546 9.032 83.1386 9.696 83.3786 10.48C83.6186 11.248 83.7386 12.088 83.7386 13C83.7386 13.976 83.5946 14.856 83.3066 15.64C83.0186 16.408 82.5946 17.064 82.0346 17.608C81.4906 18.152 80.8186 18.568 80.0186 18.856C79.2346 19.144 78.3466 19.288 77.3546 19.288C76.2666 19.288 75.3226 19.136 74.5226 18.832C73.7226 18.512 73.0586 18.08 72.5306 17.536C72.0026 16.976 71.6106 16.312 71.3546 15.544C71.0986 14.76 70.9706 13.912 70.9706 13ZM74.6906 13C74.6906 13.72 74.7306 14.384 74.8106 14.992C74.9066 15.584 75.0666 16.088 75.2906 16.504C75.5146 16.92 75.8186 17.248 76.2026 17.488C76.5866 17.712 77.0826 17.824 77.6906 17.824C78.0426 17.824 78.3626 17.744 78.6506 17.584C78.9386 17.408 79.1866 17.136 79.3946 16.768C79.6026 16.384 79.7546 15.888 79.8506 15.28C79.9626 14.656 80.0186 13.896 80.0186 13C80.0186 12.264 79.9706 11.6 79.8746 11.008C79.7946 10.416 79.6426 9.912 79.4186 9.496C79.2106 9.08 78.9226 8.76 78.5546 8.536C78.1866 8.296 77.7226 8.176 77.1626 8.176C76.7466 8.176 76.3866 8.264 76.0826 8.44C75.7786 8.6 75.5226 8.872 75.3146 9.256C75.1066 9.624 74.9466 10.12 74.8346 10.744C74.7386 11.352 74.6906 12.104 74.6906 13ZM91.8446 19L85.2206 19L85.2206 18.064C85.7486 17.808 86.2766 17.616 86.8046 17.488L86.8046 2.944L84.9806 2.752L84.9806 1.816C85.1886 1.72 85.4766 1.624 85.8446 1.528C86.2126 1.432 86.6046 1.352 87.0206 1.288C87.4526 1.208 87.8766 1.144 88.2926 1.096C88.7246 1.032 89.1086 0.984 89.4446 0.952L90.2606 0.952L90.2606 17.488C90.7886 17.616 91.3166 17.808 91.8446 18.064L91.8446 19ZM96.5733 13.768L95.3733 9.112L95.3733 2.44C95.5333 2.344 95.7733 2.28 96.0933 2.248C96.4133 2.2 96.7493 2.176 97.1013 2.176C97.4533 2.176 97.7813 2.2 98.0853 2.248C98.4053 2.28 98.6533 2.344 98.8293 2.44L98.8293 9.112L97.6293 13.768L96.5733 13.768ZM95.0853 17.296C95.0853 16.72 95.2693 16.256 95.6373 15.904C96.0213 15.552 96.5173 15.376 97.1253 15.376C97.7333 15.376 98.2293 15.552 98.6133 15.904C98.9973 16.256 99.1893 16.72 99.1893 17.296C99.1893 17.872 98.9973 18.336 98.6133 18.688C98.2293 19.024 97.7333 19.192 97.1253 19.192C96.5173 19.192 96.0213 19.024 95.6373 18.688C95.2693 18.336 95.0853 17.872 95.0853 17.296Z" fill="#2F2926"/>
</svg>
