<svg width="189" height="25" viewBox="0 0 189 25" fill="none" xmlns="http://www.w3.org/2000/svg">
<path d="M12.2684 19L4.01244 19L4.01244 18.088C4.33244 17.96 4.69244 17.832 5.09244 17.704C5.50844 17.56 5.92444 17.456 6.34044 17.392L6.34044 3.76L3.55644 3.76L2.02044 7.864L1.03644 7.864C0.972438 7.544 0.908438 7.136 0.844438 6.64C0.780438 6.144 0.724438 5.632 0.676438 5.104C0.628438 4.576 0.588438 4.056 0.556438 3.544C0.524438 3.016 0.508438 2.568 0.508438 2.2L15.7724 2.2C15.7724 2.584 15.7564 3.032 15.7244 3.544C15.6924 4.056 15.6524 4.576 15.6044 5.104C15.5564 5.632 15.5004 6.144 15.4364 6.64C15.3724 7.12 15.3084 7.528 15.2444 7.864L14.2604 7.864L12.7244 3.76L9.94044 3.76L9.94044 17.392C10.3564 17.472 10.7644 17.568 11.1644 17.68C11.5804 17.792 11.9484 17.928 12.2684 18.088L12.2684 19ZM27.4128 15.52C27.4128 15.872 27.4128 16.176 27.4128 16.432C27.4288 16.688 27.4528 16.96 27.4848 17.248L29.1408 17.488L29.1408 18.328C28.9488 18.424 28.6848 18.52 28.3488 18.616C28.0288 18.712 27.6848 18.808 27.3168 18.904C26.9648 18.984 26.6128 19.048 26.2608 19.096C25.9088 19.16 25.5968 19.208 25.3248 19.24L24.5088 19.24C24.3488 18.872 24.2528 18.504 24.2208 18.136C24.1888 17.768 24.1648 17.32 24.1488 16.792L24.0288 16.792C23.9488 17.112 23.8128 17.424 23.6208 17.728C23.4288 18.016 23.1808 18.28 22.8768 18.52C22.5888 18.744 22.2448 18.928 21.8448 19.072C21.4448 19.216 20.9968 19.288 20.5008 19.288C19.9728 19.288 19.4848 19.208 19.0368 19.048C18.5888 18.888 18.1968 18.664 17.8608 18.376C17.5248 18.088 17.2608 17.744 17.0688 17.344C16.8768 16.928 16.7808 16.464 16.7808 15.952C16.7808 15.232 16.9168 14.64 17.1888 14.176C17.4608 13.712 17.8848 13.336 18.4608 13.048C19.0528 12.744 19.8048 12.52 20.7168 12.376C21.6448 12.232 22.7648 12.128 24.0768 12.064C24.2048 10.688 24.1488 9.68 23.9088 9.04C23.6688 8.4 23.1488 8.08 22.3488 8.08C21.8528 8.08 21.3968 8.16 20.9808 8.32L19.8528 11.2L18.7968 11.2C18.6688 11.008 18.5408 10.792 18.4128 10.552C18.3008 10.296 18.1888 10.032 18.0768 9.76C17.9808 9.472 17.8928 9.184 17.8128 8.896C17.7488 8.608 17.7008 8.328 17.6688 8.056C18.2768 7.64 19.0608 7.312 20.0208 7.072C20.9808 6.832 21.9968 6.712 23.0688 6.712C23.9808 6.712 24.7248 6.816 25.3008 7.024C25.8768 7.216 26.3248 7.488 26.6448 7.84C26.9808 8.176 27.2128 8.576 27.3408 9.04C27.4688 9.504 27.5328 10 27.5328 10.528C27.5328 11.488 27.5088 12.36 27.4608 13.144C27.4288 13.912 27.4128 14.704 27.4128 15.52ZM22.0128 17.368C22.3488 17.368 22.6368 17.304 22.8768 17.176C23.1168 17.048 23.3168 16.896 23.4768 16.72C23.6528 16.544 23.7808 16.352 23.8608 16.144C23.9568 15.936 24.0288 15.752 24.0768 15.592L24.0768 13.192C23.3248 13.208 22.7088 13.256 22.2288 13.336C21.7488 13.416 21.3728 13.552 21.1008 13.744C20.8288 13.92 20.6368 14.152 20.5248 14.44C20.4288 14.712 20.3808 15.048 20.3808 15.448C20.3808 16.056 20.5248 16.528 20.8128 16.864C21.1008 17.2 21.5008 17.368 22.0128 17.368ZM37.2202 7L42.8362 7L42.8362 7.936C42.5322 8.064 42.2442 8.176 41.9722 8.272C41.7162 8.368 41.4282 8.448 41.1082 8.512C40.8682 8.832 40.6042 9.152 40.3162 9.472C40.0442 9.776 39.7642 10.072 39.4762 10.36C39.2042 10.648 38.9402 10.928 38.6842 11.2C38.4282 11.456 38.1962 11.688 37.9882 11.896C38.2282 12.216 38.5082 12.6 38.8282 13.048C39.1482 13.496 39.4922 13.976 39.8602 14.488C40.2282 14.984 40.6122 15.496 41.0122 16.024C41.4282 16.536 41.8442 17.024 42.2602 17.488L43.4842 18.064L43.4842 19L39.4282 19L38.7802 18.424C38.4122 17.928 38.0842 17.464 37.7962 17.032C37.5242 16.6 37.2762 16.184 37.0522 15.784C36.8282 15.384 36.6122 15 36.4042 14.632C36.1962 14.248 35.9882 13.872 35.7802 13.504L34.9882 13.264L34.9882 17.488C35.2602 17.536 35.5082 17.608 35.7322 17.704C35.9562 17.8 36.1962 17.92 36.4522 18.064L36.4522 19L29.9482 19L29.9482 18.064C30.4762 17.808 31.0042 17.616 31.5322 17.488L31.5322 2.944L29.7082 2.752L29.7082 1.816C29.9322 1.72 30.2362 1.624 30.6202 1.528C31.0042 1.432 31.4122 1.352 31.8442 1.288C32.2762 1.208 32.7002 1.144 33.1162 1.096C33.5322 1.032 33.8842 0.983999 34.1722 0.951999L34.9882 0.951999L34.9882 12.208L35.6122 12.208C36.1402 11.648 36.6282 11.032 37.0762 10.36C37.5402 9.688 37.9482 9.072 38.3002 8.512C38.0922 8.448 37.9002 8.368 37.7242 8.272C37.5642 8.176 37.3962 8.064 37.2202 7.936L37.2202 7ZM55.1484 16.984C55.0204 17.256 54.8124 17.536 54.5244 17.824C54.2524 18.096 53.9084 18.344 53.4924 18.568C53.0924 18.776 52.6204 18.944 52.0764 19.072C51.5484 19.216 50.9724 19.288 50.3484 19.288C49.3564 19.288 48.4764 19.144 47.7084 18.856C46.9404 18.552 46.3004 18.128 45.7884 17.584C45.2764 17.024 44.8844 16.36 44.6124 15.592C44.3564 14.824 44.2284 13.96 44.2284 13C44.2284 10.952 44.7644 9.392 45.8364 8.32C46.9084 7.248 48.3964 6.712 50.3004 6.712C51.1164 6.712 51.8764 6.824 52.5804 7.048C53.3004 7.272 53.8924 7.64 54.3564 8.152C54.8364 8.664 55.1644 9.336 55.3404 10.168C55.5324 11 55.5244 12.016 55.3164 13.216L47.9484 13.216C47.9644 14.48 48.2844 15.488 48.9084 16.24C49.5484 16.992 50.4844 17.368 51.7164 17.368C52.2444 17.368 52.7884 17.288 53.3484 17.128C53.9244 16.968 54.3724 16.76 54.6924 16.504L55.1484 16.984ZM50.2044 8.08C49.8844 8.08 49.5964 8.136 49.3404 8.248C49.1004 8.36 48.8844 8.568 48.6924 8.872C48.5164 9.16 48.3724 9.56 48.2604 10.072C48.1484 10.568 48.0684 11.2 48.0204 11.968L51.8844 11.968C51.9964 10.72 51.9244 9.76 51.6684 9.088C51.4124 8.416 50.9244 8.08 50.2044 8.08ZM77.0998 19L71.0998 19L71.0998 18.064C71.2598 17.968 71.4358 17.872 71.6278 17.776C71.8358 17.664 72.0598 17.568 72.2998 17.488L72.2998 12.712C72.2998 11.976 72.2758 11.352 72.2278 10.84C72.1958 10.328 72.1158 9.912 71.9878 9.592C71.8598 9.256 71.6838 9.016 71.4598 8.872C71.2358 8.712 70.9478 8.632 70.5958 8.632C70.0838 8.632 69.6358 8.832 69.2518 9.232C68.8838 9.616 68.6118 10.128 68.4358 10.768L68.4358 17.488C68.8678 17.616 69.2678 17.808 69.6358 18.064L69.6358 19L63.3958 19L63.3958 18.064C63.6198 17.952 63.8678 17.848 64.1398 17.752C64.4118 17.656 64.6918 17.568 64.9798 17.488L64.9798 8.704L63.3958 8.512L63.3958 7.576C63.6518 7.464 63.9638 7.36 64.3318 7.264C64.7158 7.168 65.1078 7.088 65.5078 7.024C65.9078 6.944 66.2918 6.88 66.6598 6.832C67.0438 6.784 67.3638 6.744 67.6198 6.712L68.4358 6.712L68.4358 9.424L68.4598 9.424C68.7158 8.672 69.1638 8.032 69.8038 7.504C70.4598 6.976 71.2438 6.712 72.1558 6.712C72.5398 6.712 72.9158 6.752 73.2838 6.832C73.6518 6.912 73.9878 7.064 74.2918 7.288C74.6118 7.496 74.8838 7.792 75.1078 8.176C75.3318 8.56 75.4918 9.056 75.5878 9.664C75.8758 8.784 76.3558 8.072 77.0278 7.528C77.6998 6.984 78.5158 6.712 79.4758 6.712C80.0678 6.712 80.5878 6.792 81.0358 6.952C81.4998 7.096 81.8838 7.36 82.1878 7.744C82.5078 8.128 82.7478 8.648 82.9078 9.304C83.0678 9.96 83.1478 10.792 83.1478 11.8L83.1478 17.488C83.6918 17.584 84.2198 17.776 84.7318 18.064L84.7318 19L78.4918 19L78.4918 18.064C78.8598 17.824 79.2598 17.632 79.6918 17.488L79.6918 12.28C79.6918 11.032 79.5718 10.112 79.3318 9.52C79.1078 8.928 78.6118 8.632 77.8438 8.632C77.2678 8.632 76.8118 8.848 76.4758 9.28C76.1558 9.712 75.9158 10.288 75.7558 11.008L75.7558 17.488C76.0278 17.568 76.2678 17.656 76.4758 17.752C76.6998 17.848 76.9078 17.952 77.0998 18.064L77.0998 19ZM85.9276 8.512C85.6876 8.448 85.4636 8.368 85.2556 8.272C85.0636 8.176 84.8636 8.064 84.6556 7.936L84.6556 7L90.9676 7L90.9676 7.912C90.6316 8.136 90.1756 8.336 89.5996 8.512L92.0236 14.536L92.4316 16.072L92.4796 16.072L92.8636 14.512L94.7356 8.512C94.2556 8.416 93.8156 8.224 93.4156 7.936L93.4156 7L98.0476 7L98.0476 7.936C97.7116 8.16 97.2556 8.352 96.6796 8.512L92.7676 19C92.3836 20.024 91.9996 20.856 91.6156 21.496C91.2316 22.152 90.8476 22.672 90.4636 23.056C90.0796 23.44 89.6956 23.704 89.3116 23.848C88.9276 24.008 88.5436 24.112 88.1596 24.16C87.9996 24.016 87.8556 23.832 87.7276 23.608C87.5996 23.4 87.4876 23.168 87.3916 22.912C87.2956 22.672 87.2156 22.424 87.1516 22.168C87.0876 21.912 87.0476 21.672 87.0316 21.448L87.3436 20.872L90.2716 20.872C90.4156 20.648 90.5356 20.408 90.6316 20.152C90.7436 19.896 90.8716 19.512 91.0156 19L85.9276 8.512ZM118.42 19L112.42 19L112.42 18.064C112.58 17.968 112.756 17.872 112.948 17.776C113.156 17.664 113.38 17.568 113.62 17.488L113.62 12.712C113.62 11.976 113.596 11.352 113.548 10.84C113.516 10.328 113.436 9.912 113.308 9.592C113.18 9.256 113.004 9.016 112.78 8.872C112.556 8.712 112.268 8.632 111.916 8.632C111.404 8.632 110.956 8.832 110.572 9.232C110.204 9.616 109.932 10.128 109.756 10.768L109.756 17.488C110.188 17.616 110.588 17.808 110.956 18.064L110.956 19L104.716 19L104.716 18.064C104.94 17.952 105.188 17.848 105.46 17.752C105.732 17.656 106.012 17.568 106.3 17.488L106.3 8.704L104.716 8.512L104.716 7.576C104.972 7.464 105.284 7.36 105.652 7.264C106.036 7.168 106.428 7.088 106.828 7.024C107.228 6.944 107.612 6.88 107.98 6.832C108.364 6.784 108.684 6.744 108.94 6.712L109.756 6.712L109.756 9.424L109.78 9.424C110.036 8.672 110.484 8.032 111.124 7.504C111.78 6.976 112.564 6.712 113.476 6.712C113.86 6.712 114.236 6.752 114.604 6.832C114.972 6.912 115.308 7.064 115.612 7.288C115.932 7.496 116.204 7.792 116.428 8.176C116.652 8.56 116.812 9.056 116.908 9.664C117.196 8.784 117.676 8.072 118.348 7.528C119.02 6.984 119.836 6.712 120.796 6.712C121.388 6.712 121.908 6.792 122.356 6.952C122.82 7.096 123.204 7.36 123.508 7.744C123.828 8.128 124.068 8.648 124.228 9.304C124.388 9.96 124.468 10.792 124.468 11.8L124.468 17.488C125.012 17.584 125.54 17.776 126.052 18.064L126.052 19L119.812 19L119.812 18.064C120.18 17.824 120.58 17.632 121.012 17.488L121.012 12.28C121.012 11.032 120.892 10.112 120.652 9.52C120.428 8.928 119.932 8.632 119.164 8.632C118.588 8.632 118.132 8.848 117.796 9.28C117.476 9.712 117.236 10.288 117.076 11.008L117.076 17.488C117.348 17.568 117.588 17.656 117.796 17.752C118.02 17.848 118.228 17.952 118.42 18.064L118.42 19ZM127.08 13C127.08 12.024 127.224 11.152 127.512 10.384C127.816 9.6 128.24 8.936 128.784 8.392C129.344 7.848 130.016 7.432 130.8 7.144C131.584 6.856 132.472 6.712 133.464 6.712C134.584 6.712 135.544 6.872 136.344 7.192C137.16 7.496 137.824 7.928 138.336 8.488C138.864 9.032 139.248 9.696 139.488 10.48C139.728 11.248 139.848 12.088 139.848 13C139.848 13.976 139.704 14.856 139.416 15.64C139.128 16.408 138.704 17.064 138.144 17.608C137.6 18.152 136.928 18.568 136.128 18.856C135.344 19.144 134.456 19.288 133.464 19.288C132.376 19.288 131.432 19.136 130.632 18.832C129.832 18.512 129.168 18.08 128.64 17.536C128.112 16.976 127.72 16.312 127.464 15.544C127.208 14.76 127.08 13.912 127.08 13ZM130.8 13C130.8 13.72 130.84 14.384 130.92 14.992C131.016 15.584 131.176 16.088 131.4 16.504C131.624 16.92 131.928 17.248 132.312 17.488C132.696 17.712 133.192 17.824 133.8 17.824C134.152 17.824 134.472 17.744 134.76 17.584C135.048 17.408 135.296 17.136 135.504 16.768C135.712 16.384 135.864 15.888 135.96 15.28C136.072 14.656 136.128 13.896 136.128 13C136.128 12.264 136.08 11.6 135.984 11.008C135.904 10.416 135.752 9.912 135.528 9.496C135.32 9.08 135.032 8.76 134.664 8.536C134.296 8.296 133.832 8.176 133.272 8.176C132.856 8.176 132.496 8.264 132.192 8.44C131.888 8.6 131.632 8.872 131.424 9.256C131.216 9.624 131.056 10.12 130.944 10.744C130.848 11.352 130.8 12.104 130.8 13ZM155.754 19L149.394 19L149.394 18.064C149.602 17.952 149.802 17.856 149.994 17.776C150.202 17.68 150.442 17.584 150.714 17.488L150.714 11.848C150.714 10.84 150.57 10.056 150.282 9.496C149.994 8.92 149.482 8.632 148.746 8.632C148.138 8.632 147.61 8.832 147.162 9.232C146.73 9.616 146.402 10.144 146.178 10.816L146.178 17.488C146.434 17.552 146.658 17.632 146.85 17.728C147.058 17.808 147.274 17.92 147.498 18.064L147.498 19L141.138 19L141.138 18.064C141.538 17.856 142.066 17.664 142.722 17.488L142.722 8.704L141.138 8.512L141.138 7.576C141.346 7.48 141.618 7.392 141.954 7.312C142.29 7.216 142.65 7.128 143.034 7.048C143.434 6.968 143.834 6.904 144.234 6.856C144.65 6.792 145.026 6.744 145.362 6.712L146.178 6.712L146.178 9.184L146.202 9.184C146.538 8.512 147.042 7.936 147.714 7.456C148.386 6.96 149.202 6.712 150.162 6.712C150.786 6.712 151.346 6.792 151.842 6.952C152.338 7.096 152.754 7.36 153.09 7.744C153.442 8.128 153.706 8.648 153.882 9.304C154.074 9.944 154.17 10.76 154.17 11.752L154.17 17.488C154.81 17.6 155.338 17.792 155.754 18.064L155.754 19ZM167.695 16.984C167.567 17.256 167.359 17.536 167.071 17.824C166.799 18.096 166.455 18.344 166.039 18.568C165.639 18.776 165.167 18.944 164.623 19.072C164.095 19.216 163.519 19.288 162.895 19.288C161.903 19.288 161.023 19.144 160.255 18.856C159.487 18.552 158.847 18.128 158.335 17.584C157.823 17.024 157.431 16.36 157.159 15.592C156.903 14.824 156.775 13.96 156.775 13C156.775 10.952 157.311 9.392 158.383 8.32C159.455 7.248 160.943 6.712 162.847 6.712C163.663 6.712 164.423 6.824 165.127 7.048C165.847 7.272 166.439 7.64 166.903 8.152C167.383 8.664 167.711 9.336 167.887 10.168C168.079 11 168.071 12.016 167.863 13.216L160.495 13.216C160.511 14.48 160.831 15.488 161.455 16.24C162.095 16.992 163.031 17.368 164.263 17.368C164.791 17.368 165.335 17.288 165.895 17.128C166.471 16.968 166.919 16.76 167.239 16.504L167.695 16.984ZM162.751 8.08C162.431 8.08 162.143 8.136 161.887 8.248C161.647 8.36 161.431 8.568 161.239 8.872C161.063 9.16 160.919 9.56 160.807 10.072C160.695 10.568 160.615 11.2 160.567 11.968L164.431 11.968C164.543 10.72 164.471 9.76 164.215 9.088C163.959 8.416 163.471 8.08 162.751 8.08ZM169.834 8.512C169.594 8.448 169.37 8.368 169.162 8.272C168.97 8.176 168.77 8.064 168.562 7.936L168.562 7L174.874 7L174.874 7.912C174.538 8.136 174.082 8.336 173.506 8.512L175.93 14.536L176.338 16.072L176.386 16.072L176.77 14.512L178.642 8.512C178.162 8.416 177.722 8.224 177.322 7.936L177.322 7L181.954 7L181.954 7.936C181.618 8.16 181.162 8.352 180.586 8.512L176.674 19C176.29 20.024 175.906 20.856 175.522 21.496C175.138 22.152 174.754 22.672 174.37 23.056C173.986 23.44 173.602 23.704 173.218 23.848C172.834 24.008 172.45 24.112 172.066 24.16C171.906 24.016 171.762 23.832 171.634 23.608C171.506 23.4 171.394 23.168 171.298 22.912C171.202 22.672 171.122 22.424 171.058 22.168C170.994 21.912 170.954 21.672 170.938 21.448L171.25 20.872L174.178 20.872C174.322 20.648 174.442 20.408 174.538 20.152C174.65 19.896 174.778 19.512 174.922 19L169.834 8.512ZM185.73 13.768L184.53 9.112L184.53 2.44C184.69 2.344 184.93 2.28 185.25 2.248C185.57 2.2 185.906 2.176 186.258 2.176C186.61 2.176 186.938 2.2 187.242 2.248C187.562 2.28 187.81 2.344 187.986 2.44L187.986 9.112L186.786 13.768L185.73 13.768ZM184.242 17.296C184.242 16.72 184.426 16.256 184.794 15.904C185.178 15.552 185.674 15.376 186.282 15.376C186.89 15.376 187.386 15.552 187.77 15.904C188.154 16.256 188.346 16.72 188.346 17.296C188.346 17.872 188.154 18.336 187.77 18.688C187.386 19.024 186.89 19.192 186.282 19.192C185.674 19.192 185.178 19.024 184.794 18.688C184.426 18.336 184.242 17.872 184.242 17.296Z" fill="white"/>
</svg>
